<?xml version="1.0" encoding="utf-8"?>
<!-- Generator: Adobe Illustrator 16.0.4, SVG Export Plug-In . SVG Version: 6.00 Build 0)  -->
<!DOCTYPE svg PUBLIC "-//W3C//DTD SVG 1.1 Tiny//EN" "http://www.w3.org/Graphics/SVG/1.1/DTD/svg11-tiny.dtd">
<svg version="1.1" baseProfile="tiny" id="Layer_1" xmlns="http://www.w3.org/2000/svg" xmlns:xlink="http://www.w3.org/1999/xlink"
	 x="0px" y="0px" width="97.3px" height="100px" viewBox="0 0 97.3 100" xml:space="preserve">
<path d="M91.91,21.03c1.11-1.1,2.44-2.31,4.04-3.75l1.36-1.23l-4.08-4.49l-1.34,1.22c-5.55,5.02-8.91,8.05-10.54,14.27
	c-1.62,6.18-1.69,12.44-1.52,18.29c0.18,6.03,0.4,10.01,2.1,14.44l0.64,1.64c1.63,4.07,4.08,10.22,4.08,18.12
	c0,9.55-3.89,14.4-11.56,14.4c-6.98,0-10.75-4.63-11.18-13.79c-0.2-4.06,0.94-9.06,2.15-14.36c1.02-4.47,2.07-9.09,2.58-14
	c0.57-5.41-0.14-9.01-2.23-11.33c-2.68-2.98-6.81-2.98-10.44-2.98h-0.91V9.08c0-2.41-1.95-4.37-4.37-4.37H8.95
	c-2.41,0-4.37,1.95-4.37,4.37v89.17h50.46V43.55h0.91c2.49,0,5.06,0,5.93,0.97c0.47,0.52,1.19,2.08,0.71,6.65
	c-0.48,4.55-1.49,8.99-2.47,13.28c-1.3,5.71-2.52,11.1-2.28,16C58.45,92.87,64.73,100,75.09,100c11.03,0,17.62-7.65,17.62-20.46
	c0-9.07-2.82-16.14-4.51-20.37l-0.61-1.54c-1.21-3.2-1.49-6.16-1.66-11.33c1.95-0.04,4.3-0.09,5.36-0.09c2.43,0,4.11-1.41,4.63-3.87
	c0.3-1.43,0.3-3.3,0.3-6.7v-0.9C96.21,25.75,94.37,23.18,91.91,21.03z M48.76,38.05H10.87V13.23h37.89V38.05z M90.15,35.64
	c0,1.76,0,3.44-0.06,4.5c-1.21,0.02-2.83,0.05-4.25,0.08c0.05-3.88,0.37-7.83,1.37-11.63c0.27-1.02,0.6-1.91,1.01-2.74
	c1.08,1.03,1.93,2.58,1.93,8.88V35.64z"/>
</svg>
