<?xml version="1.0" encoding="utf-8"?>
<!-- Generator: Adobe Illustrator 16.0.4, SVG Export Plug-In . SVG Version: 6.00 Build 0)  -->
<!DOCTYPE svg PUBLIC "-//W3C//DTD SVG 1.1//EN" "http://www.w3.org/Graphics/SVG/1.1/DTD/svg11.dtd">
<svg version="1.1" id="Layer_1" xmlns="http://www.w3.org/2000/svg" xmlns:xlink="http://www.w3.org/1999/xlink" x="0px" y="0px"
	 width="100px" height="99.941px" viewBox="0 0 100 99.941" enable-background="new 0 0 100 99.941" xml:space="preserve">
<path d="M7.094,53.559h8.896c0.676,0,1.299,0.338,1.672,0.893c0,0,1.696,2.56,3.388,5.101c0.938-8.319,4.207-37.396,4.207-37.396
	c0.112-0.959,0.899-1.718,1.876-1.773c0.971-0.06,1.84,0.588,2.065,1.533c0,0,4.261,17.863,6.277,26.303
	c1.327-3.751,2.668-7.551,2.668-7.551c0.281-0.794,1.034-1.334,1.879-1.338c0.841-0.003,1.602,0.521,1.891,1.314
	c0,0,3.957,10.748,4.75,12.914c2.003,0,7.722,0,7.722,0c0.674,0,1.301,0.338,1.672,0.893c0,0,1.696,2.56,3.387,5.101
	c0.94-8.319,4.209-37.396,4.209-37.396c0.109-0.96,0.896-1.718,1.873-1.773c0.972-0.06,1.845,0.588,2.068,1.533
	c0,0,4.258,17.855,6.273,26.303c1.326-3.751,2.672-7.551,2.672-7.551c0.279-0.794,1.029-1.334,1.873-1.338
	c0.843-0.003,1.607,0.521,1.893,1.314c0,0,3.961,10.748,4.752,12.914c1.383,0,5.481,0,7.893,0l0.42-0.802
	C97.201,46.162,100,33.949,100,25.056C100,13.708,91.741,0,75.646,0C52.648,0,49.693,21.544,49.693,21.544
	S46.841,0.105,23.857,0.105C8.331,0.105,0,13.315,0,25.056c0,10.142,4.44,22.657,6.715,27.799L7.094,53.559z"/>
<path d="M83.658,57.569c-0.844,0-1.594-0.527-1.881-1.312c0,0-1.776-4.823-3.316-9.009c-1.439,4.085-3.072,8.713-3.072,8.713
	c-0.296,0.839-1.104,1.383-1.994,1.33c-0.888-0.041-1.641-0.667-1.844-1.536c0,0-2.865-12.007-5.193-21.762
	c-1.383,12.288-3.541,31.475-3.541,31.475c-0.094,0.832-0.705,1.525-1.524,1.72c-0.821,0.199-1.672-0.135-2.14-0.835
	c0,0-4.86-7.314-5.844-8.784c-1.67,0-8.044,0-8.044,0c-0.839,0-1.591-0.527-1.877-1.312c0,0-1.776-4.823-3.316-9.009
	c-1.446,4.085-3.08,8.713-3.08,8.713c-0.296,0.839-1.105,1.383-1.994,1.33c-0.888-0.041-1.639-0.667-1.849-1.536
	c0,0-2.862-12.007-5.185-21.747c-1.383,12.277-3.539,31.46-3.539,31.46c-0.096,0.832-0.705,1.525-1.523,1.72
	c-0.82,0.199-1.67-0.135-2.142-0.835c0,0-4.86-7.314-5.842-8.784c-0.814,0-3.396,0-5.645,0
	C23.65,83.116,49.694,99.942,49.694,99.942s26.516-16.83,41.123-42.373H83.658L83.658,57.569z"/>
</svg>
