<?xml version="1.0" encoding="utf-8"?>
<!-- Generator: Adobe Illustrator 16.0.4, SVG Export Plug-In . SVG Version: 6.00 Build 0)  -->
<!DOCTYPE svg PUBLIC "-//W3C//DTD SVG 1.1 Tiny//EN" "http://www.w3.org/Graphics/SVG/1.1/DTD/svg11-tiny.dtd">
<svg version="1.1" baseProfile="tiny" id="Layer_1" xmlns="http://www.w3.org/2000/svg" xmlns:xlink="http://www.w3.org/1999/xlink"
	 x="0px" y="0px" width="100px" height="97.22px" viewBox="0 0 100 97.22" xml:space="preserve">
<path d="M91.66,56.71L85.87,17.2c0,0-1.32-9.09-10.74-9.09H24.87c-9.42,0-10.75,9.09-10.75,9.09L8.34,56.71l2.31,13.06l-1.49,1.82
	v9.26h6.28v8.27h15.21v-8.27h38.68v8.27h15.21v-8.27h6.28v-9.26l-1.49-1.82L91.66,56.71z M32.72,10.09h34.55v9.26H32.72V10.09z
	 M15.7,23.98l15.54-1.65H47.6v25.13H12.72L15.7,23.98z M30.04,64.48c0,2.01-1.63,3.64-3.64,3.64c-1.54,0-2.86-0.96-3.39-2.32
	c-0.53,1.36-1.85,2.32-3.39,2.32c-2.01,0-3.64-1.63-3.64-3.64c0-2.01,1.63-3.64,3.64-3.64c1.54,0,2.86,0.96,3.39,2.32
	c0.53-1.36,1.85-2.32,3.39-2.32C28.41,60.84,30.04,62.47,30.04,64.48z M84.88,73.41H15.12v-1.32h69.76V73.41z M69.96,64.48
	c0-2.01,1.63-3.64,3.64-3.64c1.54,0,2.86,0.96,3.39,2.32c0.53-1.36,1.85-2.32,3.39-2.32c2.01,0,3.64,1.63,3.64,3.64
	c0,2.01-1.63,3.64-3.64,3.64c-1.54,0-2.86-0.96-3.39-2.32c-0.53,1.36-1.85,2.32-3.39,2.32C71.59,68.12,69.96,66.49,69.96,64.48z
	 M52.4,47.45V22.33h16.37l15.54,1.65l2.97,23.47H52.4z"/>
</svg>
