<?xml version="1.0" encoding="utf-8"?>
<!-- Generator: Adobe Illustrator 16.0.4, SVG Export Plug-In . SVG Version: 6.00 Build 0)  -->
<!DOCTYPE svg PUBLIC "-//W3C//DTD SVG 1.1//EN" "http://www.w3.org/Graphics/SVG/1.1/DTD/svg11.dtd">
<svg version="1.1" id="Layer_1" xmlns="http://www.w3.org/2000/svg" xmlns:xlink="http://www.w3.org/1999/xlink" x="0px" y="0px"
	 width="97.305px" height="100px" viewBox="0 0 97.305 100" enable-background="new 0 0 97.305 100" xml:space="preserve">
<path d="M91.643,17.124c1.166-1.159,2.561-2.421,4.236-3.94l1.426-1.289l-4.277-4.707L91.621,8.47
	c-5.827,5.267-9.35,8.45-11.062,14.974c-1.699,6.484-1.771,13.054-1.595,19.193c0.188,6.328,0.423,10.501,2.2,15.156l0.671,1.719
	c1.706,4.271,4.284,10.723,4.284,19.018c0,10.025-4.082,15.111-12.129,15.111c-7.324,0-11.276-4.863-11.738-14.474
	c-0.209-4.258,0.989-9.512,2.252-15.065c1.067-4.688,2.168-9.537,2.709-14.688c0.599-5.677-0.15-9.459-2.344-11.895
	c-2.812-3.125-7.144-3.125-10.957-3.125h-0.957V4.583C52.956,2.051,50.905,0,48.373,0H4.583C2.051,0,0,2.051,0,4.583v93.581h52.956
	V40.755h0.957c2.609,0,5.312,0,6.229,1.022c0.494,0.547,1.25,2.181,0.748,6.973c-0.501,4.777-1.567,9.434-2.591,13.938
	c-1.36,5.99-2.649,11.654-2.396,16.791C56.53,92.52,63.125,100,73.991,100c11.574,0,18.488-8.027,18.488-21.473
	c0-9.518-2.962-16.938-4.738-21.379l-0.64-1.621c-1.276-3.357-1.564-6.465-1.741-11.892c2.043-0.045,4.516-0.095,5.628-0.095
	c2.547,0,4.312-1.484,4.857-4.056c0.318-1.498,0.312-3.464,0.312-7.031V31.51C96.159,22.079,94.224,19.386,91.643,17.124z
	 M46.361,34.987H6.602V8.945h39.759V34.987z M89.798,32.461c0,1.842,0,3.607-0.06,4.727c-1.269,0.018-2.975,0.053-4.462,0.086
	c0.055-4.072,0.388-8.217,1.436-12.208c0.279-1.066,0.627-2.002,1.056-2.875c1.133,1.082,2.03,2.705,2.03,9.321V32.461z"/>
</svg>
