<?xml version="1.0" encoding="utf-8"?>
<!-- Generator: Adobe Illustrator 16.0.4, SVG Export Plug-In . SVG Version: 6.00 Build 0)  -->
<!DOCTYPE svg PUBLIC "-//W3C//DTD SVG 1.1//EN" "http://www.w3.org/Graphics/SVG/1.1/DTD/svg11.dtd">
<svg version="1.1" id="Layer_1" xmlns="http://www.w3.org/2000/svg" xmlns:xlink="http://www.w3.org/1999/xlink" x="0px" y="0px"
	 width="50.4px" height="50.4px" viewBox="0 0 50.4 50.4" enable-background="new 0 0 50.4 50.4" xml:space="preserve">
<g id="Layer_1_1_">
</g>
<g id="Layer_2">
	<path stroke="#FFFFFF" stroke-width="2.1702" d="M20.456,6.236"/>
	<path stroke="#FFFFFF" stroke-width="2.1702" d="M20.456,10.576"/>
	<path d="M49.213,26.914c-0.312-0.572-1.564-2.918-5.239-5.378c-2.792-1.869-5.493-2.358-6.668-2.367
		c-1.931-0.016-3.419,0.393-3.853,2.139c-0.421,1.702,1.548,2.775,2.987,3.5l-4.98,2.142h-9.557v2.012h-2.895v-2.012H6.601
		l2.145-4.866l-0.656-2.17l-3.084,7.073L0,30.012L0.008,42.9h2.262l-0.002,4.22c0,1.812,1.462,3.281,3.273,3.281
		s3.28-1.471,3.28-3.281L8.817,42.9h21.867l-0.003,4.22c0,1.812,1.468,3.281,3.275,3.281c1.812,0,3.279-1.471,3.279-3.281
		l-0.003-4.22h2.259l0.011-12.888l-1.737-1.052l3.419-1.471c1.229,0.92,2.579,2.625,3.21,3.597c0,0,0.341,0.626,0.566,1.418
		c0.202,0.707,0.31,1.712,0.347,2.106v13.221c0,1.398,1.133,2.531,2.531,2.531s2.532-1.133,2.532-2.531V32.098
		C50.372,30.99,50.237,28.781,49.213,26.914z M5.46,37.21c-1.519,0-2.743-1.229-2.743-2.754c0-1.515,1.226-2.744,2.743-2.744
		c1.517,0,2.749,1.229,2.749,2.744C8.209,35.98,6.976,37.21,5.46,37.21z M12.179,38.259l0.003-4.94c0-0.686,0.553-1.239,1.234-1.239
		l13.075-0.023c0.684,0,1.237,0.562,1.237,1.241l0.003,4.945L12.179,38.259z M34.041,37.21c-1.515,0-2.745-1.229-2.745-2.754
		c0-1.515,1.23-2.744,2.745-2.744c1.518,0,2.745,1.229,2.745,2.744C36.786,35.98,35.558,37.21,34.041,37.21z"/>
</g>
<g id="Layer_3">
	<path d="M31.833,8.262h-9.93V5.754h-2.895v2.509H8.701c-2.104,0-3.662,1.379-2.891,4.134l2.271,7.551l3.717-8.512l1.561,0.022
		L8.723,22.083l0.972,3.232c0,0,4.883-1.325,10.249-1.325c5.486,0,11.001,1.325,11.001,1.325l1.104-3.509
		c-0.697,0.649-1.678,0.973-2.678,0.773c-1.657-0.331-2.734-1.962-2.398-3.638c0.335-1.682,1.958-2.768,3.613-2.434
		c1.232,0.245,2.136,1.203,2.388,2.364l2.04-6.477C35.404,10.113,34.274,8.262,31.833,8.262z"/>
</g>
</svg>
