<?xml version="1.0" encoding="utf-8"?>
<!-- Generator: Adobe Illustrator 16.0.4, SVG Export Plug-In . SVG Version: 6.00 Build 0)  -->
<!DOCTYPE svg PUBLIC "-//W3C//DTD SVG 1.1 Tiny//EN" "http://www.w3.org/Graphics/SVG/1.1/DTD/svg11-tiny.dtd">
<svg version="1.1" baseProfile="tiny" id="Layer_1" xmlns="http://www.w3.org/2000/svg" xmlns:xlink="http://www.w3.org/1999/xlink"
	 x="0px" y="0px" width="100px" height="100px" viewBox="0 0 100 100" xml:space="preserve">
<g id="Captions" display="none">
</g>
<g id="Your_Icon">
	<path d="M31.38,47.73v-3.7l-2.81-2.61l2.72-2.53l-2.72-2.53l2.72-2.53l-2.72-2.53l2.72-2.52l-5.14-4.78l-5.23,4.86v18.76
		c-3.92,1.77-6.63,5.5-6.63,9.83c0,6.03,5.25,10.91,11.73,10.91s11.73-4.89,11.73-10.91C37.75,53.21,35.16,49.55,31.38,47.73z
		 M26.02,65.03c-1.9,0-3.44-1.44-3.44-3.2c0-1.77,1.54-3.2,3.44-3.2c1.9,0,3.44,1.43,3.44,3.2C29.46,63.6,27.92,65.03,26.02,65.03z"
		/>
	<path d="M20.79,70.7v4.66H0v6.32h27.72v-3.73h0.01v-6.46c-0.56,0.06-1.13,0.1-1.71,0.1C24.18,71.58,22.42,71.26,20.79,70.7z
		 M85.57,75.36V13.39c0-3.56-3.11-6.45-6.94-6.45h-50.9c-3.83,0-6.94,2.89-6.94,6.45v11.02l2.9-2.7c0.65-0.61,1.53-0.95,2.45-0.95
		c0.56,0,1.1,0.14,1.58,0.37v-7.74h50.82L50.47,28.61c-1.07,0.58-1.72,1.64-1.72,2.79v64.55c0,1.15,0.66,2.22,1.74,2.8
		c0.54,0.29,1.14,0.43,1.73,0.43c0.6,0,1.21-0.15,1.75-0.44l27.51-14.91c0.44-0.18,0.84-0.41,1.23-0.66l1.05-0.57
		c0.43-0.23,0.77-0.56,1.05-0.92H100v-6.32H85.57z M60.28,69.95c-2.24,0-4.05-1.69-4.05-3.77c0-2.08,1.81-3.77,4.05-3.77
		c2.23,0,4.05,1.69,4.05,3.77C64.33,68.27,62.52,69.95,60.28,69.95z"/>
</g>
</svg>
