<svg xmlns="http://www.w3.org/2000/svg" xmlns:xlink="http://www.w3.org/1999/xlink" version="1.1" id="Your_Icon" x="0px" y="0px" width="100px" height="100px" viewBox="0 0 100 100" enable-background="new 0 0 100 100" xml:space="preserve">
<path d="M2,41v12.08C2,55.66,4.09,58,6.67,58h0.66c0,0,0.6,1.33,1.34,1.33C9.4,59.33,10,58,10,58h16.4  C28.78,69,38.44,76.95,50,76.95C61.56,76.95,71.22,69,73.6,58h16.73c0,0,0.6,1.33,1.34,1.33C92.4,59.33,93,58,93,58h0.33  c2.58,0,4.67-2.34,4.67-4.92V41H2z M54.83,52c0,2-2.16,4.83-4.83,4.83S45.17,54,45.17,52H54.83z M42,52c0,4,3.58,8,8,8s8-4,8-8h0.75  c0,4-3.92,8.75-8.75,8.75c-4.82,0-8.75-4.75-8.75-8.75H42z M50,74.25c-11.99,0-21.71-9.51-21.71-21.5c0-0.32,0.01-0.75,0.03-0.75  h10.93c0,6,4.82,10.75,10.75,10.75c5.93,0,10.75-4.75,10.75-10.75h10.93c0.021,0,0.03,0.43,0.03,0.75  C71.71,64.74,61.99,74.25,50,74.25z M83,52h-2v-6h2V52z M86,52h-2v-6h2V52z M93.33,49.78l-4.04,2.34c-0.15,0.09-0.32,0.13-0.5,0.13  c-0.17,0-0.24-0.04-0.4-0.13c-0.3-0.18-0.39-0.51-0.39-0.87v-4.67c0-0.35,0.09-0.68,0.39-0.86c0.32-0.18,0.641-0.18,0.95,0  l4.021,2.33c0.31,0.18,0.479,0.51,0.479,0.87C93.84,49.27,93.64,49.6,93.33,49.78z"/>
</svg>