<svg xmlns="http://www.w3.org/2000/svg" xmlns:xlink="http://www.w3.org/1999/xlink" version="1.1" x="0px" y="0px" width="100px" height="100px" viewBox="0 0 100 100" enable-background="new 0 0 100 100" xml:space="preserve">
<g id="Captions">
</g>
<g id="Your_Icon">
	<path d="M33.5,31.25l-18.75-5.125c0,0-6.875-3.062-7.875,2.938S2.938,40.03,3.938,47.031L4,49c0,0-1,10,0,10c0,0,1,4,13,7v-5   c0,0,0.25-4,5.25-1c0,0,7.375,4,9.375,6c0,0,9.188,7,15.188,7c0,0,27.094,1,31.094,0c0,0,16.047-1,17.047-4c0,0,1.023-5-1.977-5   c0,0,1.012-9-12.988-11c0,0-8.994-2-8.994-3l-9.997-8c0,0,1.003-2-0.997-1l-2-2c0,0,0-1-2-1l-2-1c0,0,0,0-1,0h-1l-1-2.25   c0,0,1-2.375-2-2.375l-1-1.188c0,0,0-2.094-2-2.094l-1-1.047l-2,0.977c0,0-3-4.012-6-2.012c0,0-3,2.994-3,3.994   S33.5,31.25,33.5,31.25z"/>
	<path d="M19,66"/>
	<path d="M18,66l6-4c0,0-4-3-5-2S18,61,18,66z"/>
</g>
</svg>