<?xml version="1.0" encoding="utf-8"?>
<!-- Generator: Adobe Illustrator 16.0.4, SVG Export Plug-In . SVG Version: 6.00 Build 0)  -->
<!DOCTYPE svg PUBLIC "-//W3C//DTD SVG 1.1//EN" "http://www.w3.org/Graphics/SVG/1.1/DTD/svg11.dtd">
<svg version="1.1"
	 id="svg3905" sodipodi:docname="teddy_bear.svg" inkscape:version="0.48.2 r9819" xmlns:cc="http://creativecommons.org/ns#" xmlns:inkscape="http://www.inkscape.org/namespaces/inkscape" xmlns:rdf="http://www.w3.org/1999/02/22-rdf-syntax-ns#" xmlns:sodipodi="http://sodipodi.sourceforge.net/DTD/sodipodi-0.dtd" xmlns:dc="http://purl.org/dc/elements/1.1/" xmlns:svg="http://www.w3.org/2000/svg"
	 xmlns="http://www.w3.org/2000/svg" xmlns:xlink="http://www.w3.org/1999/xlink" x="0px" y="0px" width="76.943px" height="100px"
	 viewBox="0 0 76.943 100" enable-background="new 0 0 76.943 100" xml:space="preserve">
<sodipodi:namedview  inkscape:cx="-8.4076942" inkscape:zoom="1.979899" fit-margin-top="0" showgrid="false" borderopacity="1.0" pagecolor="#ffffff" bordercolor="#666666" inkscape:cy="32.585919" inkscape:snap-nodes="true" inkscape:snap-bbox="true" fit-margin-right="0.5" inkscape:document-units="px" fit-margin-bottom="0" inkscape:pageopacity="0.0" inkscape:pageshadow="2" inkscape:current-layer="layer1" inkscape:window-width="1280" inkscape:window-height="975" inkscape:window-x="-4" inkscape:window-y="-4" inkscape:window-maximized="1" id="base" fit-margin-left="0">
	<inkscape:grid  type="xygrid" empspacing="5" enabled="true" visible="true" snapvisiblegridlinesonly="true" id="grid3783">
		</inkscape:grid>
</sodipodi:namedview>
<g id="layer1" transform="translate(35.492183,-326.58948)" inkscape:label="Ebene 1" inkscape:groupmode="layer">
	<path id="path4183" sodipodi:nodetypes="sssssss" inkscape:connector-curvature="0" d="M22.328,386.98
		c0,10.279-5.124,21.777-19.273,21.843c-14.019,0.065-19.273-11.563-19.273-21.843c0-6.92,2.157-16.543,5.646-20.271
		c3.487-3.728,8.306-1.558,13.628-1.558s10.394-1.412,13.881,2.316C20.424,371.194,22.328,380.06,22.328,386.98z"/>
	
		<path id="path4187" sodipodi:cx="-728.32001" sodipodi:type="arc" sodipodi:rx="43.840622" sodipodi:cy="702.3443" sodipodi:ry="98.287842" d="
		M-14.373,383.816c-7.64,7.772-16.531,11.224-19.859,7.708c-3.328-3.515,0.167-12.667,7.808-20.439
		c7.641-7.773,16.532-11.224,19.86-7.709C-3.237,366.891-6.733,376.043-14.373,383.816z"/>
	<path id="path4189" d="M2.695,329.652c-10.6,0.282-18.986,8.964-18.719,19.375c0.269,10.411,9.088,18.625,19.688,18.344
		c10.601-0.282,18.956-8.964,18.688-19.375C22.084,337.585,13.296,329.37,2.695,329.652z M2.883,346.714
		c5.526-0.147,10.177,3.6,10.531,8.469v0.375c0.13,5.026-4.37,9.224-10.062,9.375s-10.401-3.817-10.531-8.844
		C-7.309,351.063-2.81,346.866,2.883,346.714z"/>
	
		<path id="path4193" sodipodi:cx="-940.45203" sodipodi:type="arc" sodipodi:rx="26.870058" sodipodi:cy="655.67529" sodipodi:ry="13.435029" sodipodi:start="0" sodipodi:open="true" sodipodi:end="6.2417396" d="
		M8.432,352.436c0.039,1.516-2.348,2.809-5.331,2.888c-2.984,0.079-5.435-1.085-5.474-2.602c-0.039-1.516,2.349-2.809,5.332-2.888
		c2.896-0.077,5.308,1.02,5.466,2.487"/>
	
		<path id="path4195" sodipodi:cx="-432" sodipodi:type="arc" sodipodi:rx="54" sodipodi:cy="535.36218" sodipodi:ry="38" sodipodi:start="0" sodipodi:open="true" sodipodi:end="6.2417396" d="
		M26.254,346.477c-3.458,3.306-10.011,1.938-14.635-3.056s-5.568-11.722-2.11-15.028c3.459-3.306,10.011-1.938,14.635,3.056
		c4.489,4.848,5.531,11.365,2.363,14.772"/>
	
		<path id="path4197" sodipodi:cx="-432" sodipodi:type="arc" sodipodi:rx="54" sodipodi:cy="535.36218" sodipodi:ry="38" sodipodi:start="0" sodipodi:open="true" sodipodi:end="6.2417396" d="
		M-20.307,348.403c3.624,3.118,10.098,1.404,14.458-3.828c4.361-5.232,4.959-12.001,1.335-15.12s-10.097-1.404-14.458,3.828
		c-4.233,5.08-4.939,11.643-1.6,14.878"/>
	<path id="path4199" sodipodi:nodetypes="cssssaacssc" inkscape:connector-curvature="0" d="M15.532,391.321
		c-3.304-2.019-6.52-2.408-8.962-0.668c-4.885,3.48-4.655,14.09,0.543,23.733c1.95,3.615,2.691,4.76,4.92,7.59
		c1.923,2.441,4.791,3.861,7.529,4.399c3.729,0.731,10.124-0.415,13.805-3.446c2.792-2.3,6.005-6.472,4.684-9.868
		c-1.355-3.486-2.701-4.204-10.325-4.054c-0.678-2.371-1.605-4.855-2.884-7.228C22.242,396.959,18.836,393.34,15.532,391.321
		L15.532,391.321z"/>
	<path id="path4201" sodipodi:nodetypes="cssssaacssc" inkscape:connector-curvature="0" d="M-9.423,391.321
		c3.305-2.019,6.52-2.408,8.962-0.668c4.886,3.48,4.656,14.09-0.543,23.733c-1.949,3.615-2.69,4.76-4.92,7.59
		c-1.923,2.441-4.79,3.861-7.529,4.399c-3.728,0.731-10.123-0.415-13.804-3.446c-2.792-2.3-6.006-6.472-4.685-9.868
		c1.356-3.486,2.702-4.204,10.326-4.054c0.678-2.371,1.604-4.855,2.884-7.228C-16.132,396.959-12.727,393.34-9.423,391.321
		L-9.423,391.321z"/>
	
		<path id="path4203" sodipodi:cx="-728.32001" sodipodi:type="arc" sodipodi:rx="43.840622" sodipodi:cy="702.3443" sodipodi:ry="98.287842" d="
		M19.831,383.816c7.641,7.772,16.532,11.224,19.86,7.708c3.328-3.515-0.168-12.667-7.808-20.439
		c-7.641-7.773-16.532-11.224-19.86-7.709C8.695,366.891,12.191,376.043,19.831,383.816z"/>
</g>
</svg>
