<?xml version="1.0" encoding="utf-8"?>
<!-- Generator: Adobe Illustrator 16.0.4, SVG Export Plug-In . SVG Version: 6.00 Build 0)  -->
<!DOCTYPE svg PUBLIC "-//W3C//DTD SVG 1.1//EN" "http://www.w3.org/Graphics/SVG/1.1/DTD/svg11.dtd">
<svg version="1.1" id="Layer_1" xmlns="http://www.w3.org/2000/svg" xmlns:xlink="http://www.w3.org/1999/xlink" x="0px" y="0px"
	 width="100px" height="100px" viewBox="0 0 100 100" enable-background="new 0 0 100 100" xml:space="preserve">
<g id="Your_Icon">
	<path d="M81.407,68.682c-1.448,0-2.894,0.068-4.339,0.185c-3.857,0.309-7.741,0.963-11.817,1.62
		c-5.606,0.904-11.575,1.812-18.332,1.812c-6.381,0-13.467-0.816-21.605-3.201c2.898,4.215,7.269,6.842,12.26,8.424
		c5.216,1.65,11.097,2.16,16.605,2.16c1.09,0,2.162-0.021,3.217-0.057c2.725-0.09,5.299-0.277,7.584-0.479
		c0.684-0.062,1.386-0.09,2.105-0.09c5.715,0.004,12.489,1.772,17.848,3.541c4.491,1.481,7.98,2.961,8.993,3.401l2.522-14.394
		C91.148,69.432,86.25,68.682,81.407,68.682z"/>
	<path d="M43.448,13.766h-0.266c-0.032,0-0.063,0-0.095,0c-0.32,0-0.645-0.006-0.967-0.006c-0.159,0-0.317,0.001-0.472,0.006
		c-0.044,0.001-0.089,0.003-0.134,0.003c-0.141,0-0.283-0.007-0.425-0.007c-0.058,0-0.116,0-0.175,0.003h-0.466
		C20.069,14.887,4,27.444,4,42.619c0,15.908,17.672,28.854,39.448,28.854c21.774,0,39.446-12.945,39.446-28.854
		C82.896,26.71,65.223,13.766,43.448,13.766z M43.556,69.262C22.877,69.273,6.103,57.254,6.088,42.423c0-0.011,0-0.023,0-0.035
		C6.075,27.554,22.827,15.522,43.505,15.511c20.681-0.009,37.454,12.007,37.468,26.84c0,0.012,0,0.025,0,0.037
		C80.986,57.219,64.234,69.252,43.556,69.262z"/>
	<path d="M4.546,49.99C4.189,51.457,4,52.963,4,54.5c0,14.979,17.662,27.123,39.448,27.123c3.787,0,7.448-0.367,10.915-1.053
		c-0.23,0.002-0.463,0.006-0.697,0.006c-5.539,0-11.466-0.51-16.759-2.184c-5.11-1.619-9.633-4.341-12.611-8.746
		C14.284,65.586,6.903,58.449,4.546,49.99z"/>
	<path d="M57.863,70.305c2.563-0.315,5.029-0.703,7.434-1.092c4.266-0.688,8.337-1.377,12.406-1.666
		c3.699-4.131,5.834-8.994,5.834-14.201c0-1.537-0.189-3.041-0.547-4.508C80.229,58.75,70.57,66.846,57.863,70.305z"/>
	<path d="M43.505,15.257C22.827,15.266,6.075,27.299,6.088,42.132c0,0.011,0,0.023,0,0.035
		c0.015,14.835,16.789,26.851,37.468,26.841c20.678-0.01,37.43-12.045,37.417-26.876c0-0.012,0-0.024,0-0.036
		C80.959,27.263,64.186,15.247,43.505,15.257z M37.517,18.174c0.034-0.003,0.066-0.003,0.098-0.003c0.077,0,0.153,0.006,0.231,0.006
		c0.024,0,0.047-0.002,0.072-0.003c0.095-0.004,0.191-0.005,0.286-0.005c0.193,0,0.387,0.005,0.581,0.005
		c6.217,0,11.261,3.631,11.261,8.063c0,4.434-5.043,7.997-11.261,7.997c-6.22,0-11.263-3.563-11.263-7.997
		C27.521,22.112,31.897,18.628,37.517,18.174z M22.524,52.291c-6.807,0-12.327-3.927-12.327-8.795c0-4.525,4.72-8.293,10.862-8.795
		c0.154-0.013,0.315-0.018,0.479-0.018c0.328,0,0.667,0.018,0.985,0.018c6.807,0,12.328,3.928,12.328,8.795
		C34.852,48.364,29.331,52.291,22.524,52.291z M47.778,65.154c-7.53,0-13.659-4.396-13.659-9.797c0-4.866,5.035-8.976,11.527-9.729
		h0.134h0.066h0.067h0.068h0.199h0.066c0.172-0.014,0.34-0.02,0.509-0.02c0.336,0,0.671,0.02,1.023,0.02
		c7.533,0,13.662,4.327,13.662,9.729C61.439,60.758,55.311,65.154,47.778,65.154z M63.438,45.095
		c-6.615,0-11.992-3.801-11.992-8.528c0-4.367,4.674-8.067,10.595-8.596c0.034-0.004,0.065-0.004,0.097-0.004
		c0.076,0,0.15,0.007,0.229,0.007c0.023,0,0.05,0,0.076-0.002c0.07-0.004,0.142-0.007,0.211-0.007c0.147,0,0.293,0.007,0.443,0.007
		c0.024,0,0.051,0,0.076,0h0.268c6.617,0,11.996,3.868,11.996,8.596C75.434,41.293,70.057,45.095,63.438,45.095z"/>
	<path d="M22.524,35.828c-0.155,0-0.316-0.005-0.477-0.009c-0.155-0.003-0.311-0.008-0.465-0.008c-0.163,0-0.3,0.005-0.42,0.015
		c-5.667,0.464-9.94,3.872-9.94,7.926c0,4.37,5.071,7.924,11.302,7.924c6.233,0,11.302-3.554,11.302-7.924
		S28.757,35.828,22.524,35.828z"/>
	<path d="M29.088,27.871c0.756,3.254,4.817,5.748,9.702,5.748c5.419,0,9.828-3.069,9.828-6.843c0-0.182-0.014-0.362-0.033-0.542
		c-1.803-0.192-3.65-0.292-5.53-0.292C38.103,25.941,33.384,26.628,29.088,27.871z"/>
	<path d="M52.482,36.82c0,4.218,4.914,7.65,10.955,7.65c6.043,0,10.955-3.432,10.955-7.65c0-0.155-0.008-0.309-0.021-0.464
		c-3.293-2.985-7.502-5.464-12.347-7.238C56.665,29.643,52.482,33.008,52.482,36.82z"/>
	<path d="M47.778,46.828c-0.175,0-0.344-0.005-0.514-0.009c-0.154-0.004-0.309-0.009-0.462-0.009c-0.168,0-0.31,0.006-0.444,0.016
		l-0.02,0.002h-0.021h-0.063h-0.189H46h-0.064h-0.064h-0.098c-6.005,0.708-10.53,4.482-10.53,8.788c0,4.879,5.623,8.85,12.534,8.85
		c6.914,0,12.537-3.971,12.537-8.85C60.314,50.77,54.691,46.828,47.778,46.828z"/>
</g>
</svg>
