<?xml version="1.0" encoding="utf-8"?>
<!-- Generator: Adobe Illustrator 16.0.4, SVG Export Plug-In . SVG Version: 6.00 Build 0)  -->
<!DOCTYPE svg PUBLIC "-//W3C//DTD SVG 1.1//EN" "http://www.w3.org/Graphics/SVG/1.1/DTD/svg11.dtd">
<svg version="1.1" id="Layer_1" xmlns="http://www.w3.org/2000/svg" xmlns:xlink="http://www.w3.org/1999/xlink" x="0px" y="0px"
	 width="100px" height="78.742px" viewBox="0 0 100 78.742" enable-background="new 0 0 100 78.742" xml:space="preserve">
<path d="M94.076,0L94.076,0C91.998,0,90.15,1.113,89.1,2.776h-8.361c-0.112-0.006-0.227-0.006-0.338,0
	c-1.205,0.132-2.223,0.951-2.606,2.099l-3.385,9.918H2.065H0l0.542,1.964l10.292,37.237l0.305,1.151h1.185h48.273l-1.455,4.231
	H14.726c-0.022-0.002-0.045,0-0.067,0c-0.077,0-0.16,0-0.237,0c-5.312,0-9.682,4.367-9.682,9.682s4.369,9.682,9.682,9.682
	s9.682-4.367,9.682-9.682c0-1.217-0.227-2.377-0.643-3.453h33.412c-0.417,1.076-0.678,2.236-0.678,3.453
	c0,5.312,4.402,9.682,9.716,9.682s9.682-4.367,9.682-9.682s-4.368-9.682-9.682-9.682c-0.058,0-0.111,0-0.169,0L82.938,8.971H89.1
	c1.047,1.679,2.885,2.81,4.978,2.81c3.214,0,5.924-2.676,5.924-5.89C100,2.676,97.29,0,94.076,0z M14.421,72.512
	c-1.957,0-3.453-1.496-3.453-3.453c0-1.911,1.427-3.417,3.317-3.485v-0.002c0.101,0.018,0.203,0.028,0.305,0.035
	c0.057,0,0.113-0.011,0.169,0c1.788,0.166,3.148,1.611,3.148,3.452C17.908,71.017,16.378,72.512,14.421,72.512z M44.719,17.908H58.7
	l-1.964,11.239H44.279L44.719,17.908z M56.635,29.791l-1.963,11.136H43.805l0.44-11.136H56.635z M44.11,17.908l-0.44,11.239H31.788
	l-0.609-11.239H44.11z M31.855,40.927H21.361L19.634,29.79h11.578L31.855,40.927z M30.569,17.908l0.609,11.239H19.533l-1.727-11.239
	H30.569z M4.096,17.908h13.101l1.726,11.239H7.21L4.096,17.908z M7.38,29.791h11.611l1.727,11.136H10.46L7.38,29.791z
	 M13.507,52.031l-2.877-10.46h10.189l1.591,10.46H13.507z M23.054,52.031l-1.591-10.46H31.89l0.575,10.46H23.054z M42.755,52.031
	h-9.682l-0.576-10.46h10.664L42.755,52.031z M32.464,40.927L31.821,29.79h11.814l-0.44,11.137H32.464z M43.365,52.031l0.406-10.46
	h10.765l-1.828,10.46H43.365z M53.316,52.031l1.863-10.46h10.053l-3.588,10.46H53.316z M65.91,65.572
	c1.957,0,3.453,1.53,3.453,3.487s-1.496,3.453-3.453,3.453s-3.486-1.496-3.486-3.453S63.953,65.572,65.91,65.572z M65.438,40.927
	H55.281l1.963-11.137h12.018L65.438,40.927z M69.465,29.147H57.346l1.998-11.239h13.98L69.465,29.147z"/>
</svg>
