<?xml version="1.0" encoding="utf-8"?>
<!-- Generator: Adobe Illustrator 16.0.4, SVG Export Plug-In . SVG Version: 6.00 Build 0)  -->
<!DOCTYPE svg PUBLIC "-//W3C//DTD SVG 1.1//EN" "http://www.w3.org/Graphics/SVG/1.1/DTD/svg11.dtd">
<svg version="1.1" id="Layer_1" xmlns="http://www.w3.org/2000/svg" xmlns:xlink="http://www.w3.org/1999/xlink" x="0px" y="0px"
	 width="100px" height="100px" viewBox="0 0 100 100" enable-background="new 0 0 100 100" xml:space="preserve">
<g id="Captions">
</g>
<g id="Your_Icon">
	<g>
		<path d="M91.102,80.665c-0.406-2.452-13.738-19.751-23.492-32.146C65.588,44.59,43.428,1.663,39.211,0.133
			c-4.419-1.603-0.916,14.304,3.531,23.074c4.375,8.625,15.392,23.877,15.392,23.877l3.216,0.576
			c6.868,14.331,18.465,37.72,21.521,38.829C87.289,88.093,91.744,84.546,91.102,80.665z"/>
		<path d="M36.777,47.496c4.029-3.16,5.011-6.955,1.992-11.788C30.266,22.1,20.345,11.413,20.345,11.413l-1.363,0.852L32.52,33.931
			c0.403,0.645,0.207,1.493-0.438,1.896c-0.645,0.402-1.493,0.207-1.896-0.438L16.648,13.723l-1.547,0.967l13.538,21.666
			c0.403,0.644,0.207,1.493-0.437,1.896c-0.645,0.402-1.493,0.206-1.896-0.438L12.768,16.148l-1.548,0.967L24.758,38.78
			c0.403,0.645,0.207,1.494-0.438,1.896c-0.645,0.403-1.493,0.207-1.895-0.438L8.887,18.573l-1.168,0.729
			c0,0,3.708,9.792,13.349,26.906c2.283,4.052,8.159,5.854,13.57,2.736c5.373,11.451,23.244,48.998,27.282,50.461
			c4.768,1.729,9.574-2.099,8.881-6.282C70.21,89.581,44.626,57.324,36.777,47.496z"/>
	</g>
</g>
</svg>
