<?xml version="1.0" encoding="utf-8"?>
<!-- Generator: Adobe Illustrator 16.0.4, SVG Export Plug-In . SVG Version: 6.00 Build 0)  -->
<!DOCTYPE svg PUBLIC "-//W3C//DTD SVG 1.1 Tiny//EN" "http://www.w3.org/Graphics/SVG/1.1/DTD/svg11-tiny.dtd">
<svg version="1.1" baseProfile="tiny" id="Layer_1" xmlns="http://www.w3.org/2000/svg" xmlns:xlink="http://www.w3.org/1999/xlink"
	 x="0px" y="0px" width="100px" height="99.94px" viewBox="0 0 100 99.94" xml:space="preserve">
<path d="M10.93,55.24h8.1c0.62,0,1.18,0.31,1.52,0.81c0,0,1.54,2.33,3.08,4.65c0.85-7.58,3.83-34.05,3.83-34.05
	c0.1-0.87,0.82-1.56,1.71-1.61c0.88-0.05,1.68,0.54,1.88,1.4c0,0,3.88,16.27,5.72,23.95c1.21-3.42,2.43-6.88,2.43-6.88
	c0.26-0.72,0.94-1.21,1.71-1.22c0.77,0,1.46,0.47,1.72,1.2c0,0,3.6,9.79,4.32,11.76c1.82,0,7.03,0,7.03,0
	c0.61,0,1.18,0.31,1.52,0.81c0,0,1.54,2.33,3.08,4.65c0.86-7.58,3.83-34.05,3.83-34.05c0.1-0.87,0.82-1.56,1.71-1.61
	c0.89-0.05,1.68,0.54,1.88,1.4c0,0,3.88,16.26,5.71,23.95c1.21-3.42,2.43-6.88,2.43-6.88c0.25-0.72,0.94-1.21,1.71-1.22
	c0.77,0,1.46,0.47,1.72,1.2c0,0,3.61,9.79,4.33,11.76c1.26,0,4.99,0,7.19,0l0.38-0.73c3.49-6,6.04-17.12,6.04-25.22
	c0-10.33-7.52-22.81-22.17-22.81c-20.94,0-23.63,19.62-23.63,19.62S47.12,6.57,26.2,6.57c-14.14,0-21.72,12.03-21.72,22.72
	c0,9.23,4.04,20.63,6.11,25.31L10.93,55.24z"/>
<path d="M80.65,58.89c-0.77,0-1.45-0.48-1.71-1.2c0,0-1.62-4.39-3.02-8.2c-1.31,3.72-2.8,7.93-2.8,7.93c-0.27,0.76-1,1.26-1.82,1.21
	c-0.81-0.04-1.49-0.61-1.68-1.4c0,0-2.61-10.93-4.73-19.81c-1.26,11.19-3.22,28.66-3.22,28.66c-0.09,0.76-0.64,1.39-1.39,1.57
	c-0.75,0.18-1.52-0.12-1.95-0.76c0,0-4.42-6.66-5.32-8c-1.52,0-7.32,0-7.32,0c-0.76,0-1.45-0.48-1.71-1.2c0,0-1.62-4.39-3.02-8.2
	c-1.32,3.72-2.8,7.93-2.8,7.93c-0.27,0.76-1.01,1.26-1.82,1.21c-0.81-0.04-1.49-0.61-1.68-1.4c0,0-2.61-10.93-4.72-19.8
	c-1.26,11.18-3.22,28.65-3.22,28.65c-0.09,0.76-0.64,1.39-1.39,1.57c-0.75,0.18-1.52-0.12-1.95-0.76c0,0-4.43-6.66-5.32-8
	c-0.74,0-3.09,0-5.14,0c13.09,23.26,36.8,38.58,36.8,38.58s24.14-15.32,37.44-38.58H80.65L80.65,58.89z"/>
</svg>
