<?xml version="1.0" encoding="utf-8"?>
<!-- Generator: Adobe Illustrator 16.0.4, SVG Export Plug-In . SVG Version: 6.00 Build 0)  -->
<!DOCTYPE svg PUBLIC "-//W3C//DTD SVG 1.1//EN" "http://www.w3.org/Graphics/SVG/1.1/DTD/svg11.dtd">
<svg version="1.1" id="Layer_1" xmlns="http://www.w3.org/2000/svg" xmlns:xlink="http://www.w3.org/1999/xlink" x="0px" y="0px"
	 width="100px" height="100px" viewBox="0 0 100 100" enable-background="new 0 0 100 100" xml:space="preserve">
<path d="M89.191,100.025V77.999c0-9.454-7.662-17.118-17.115-17.118h-44.35c-9.45,0-17.115,7.665-17.115,17.118v22.026H89.191
	L89.191,100.025z"/>
<path d="M50.887,23.682l-19.83-5.964v9.485h0.583c2.067,2.479,9.811,4.332,19.102,4.332c9.294,0,17.037-1.853,19.102-4.332h0.75
	v-9.447L50.887,23.682z"/>
<path d="M50.887,0.025l34.031,10.229L50.887,20.482L16.854,10.254L50.887,0.025z"/>
<path d="M50.887,25.78l-16.456-4.947c-3.512,3.885-5.709,8.981-5.709,14.63c0,12.104,9.808,21.909,21.912,21.909
	c12.101,0,21.905-9.804,21.905-21.909c0-5.591-2.159-10.64-5.604-14.509L50.887,25.78z"/>
<path d="M85.598,24.645c0-1.158-1.012-2.105-2.39-2.447v-9.402l-1.892,0.569v8.795c-1.493,0.287-2.623,1.263-2.623,2.485
	c0,1.193,1.076,2.149,2.518,2.462l-2.518,4.813l6.902,0.134l-1.945-5.087C84.793,26.54,85.598,25.675,85.598,24.645z"/>
</svg>
