<?xml version="1.0" encoding="utf-8"?>
<!-- Generator: Adobe Illustrator 16.0.4, SVG Export Plug-In . SVG Version: 6.00 Build 0)  -->
<!DOCTYPE svg PUBLIC "-//W3C//DTD SVG 1.1//EN" "http://www.w3.org/Graphics/SVG/1.1/DTD/svg11.dtd">
<svg version="1.1" id="Слой_1" xmlns="http://www.w3.org/2000/svg" xmlns:xlink="http://www.w3.org/1999/xlink" x="0px" y="0px"
	 width="100px" height="100px" viewBox="0 0 100 100" enable-background="new 0 0 100 100" xml:space="preserve">
<path d="M99.012,87.436C83.825,61.132,68.641,34.83,53.454,8.527C52.607,7.06,51.293,6.522,50,6.604
	c-1.292-0.081-2.607,0.456-3.454,1.923C31.361,34.83,16.175,61.132,0.988,87.436c-1.515,2.623,0.41,6.019,3.454,6.019
	c30.372,0,60.744,0,91.115,0C98.602,93.453,100.525,90.059,99.012,87.436z M50,18.547C62.876,40.85,75.753,63.15,88.629,85.453
	c-25.753,0-51.505,0-77.258,0C24.248,63.15,37.124,40.85,50,18.547z"/>
<polygon points="59,49 47,55 55,34 46,34 38,63 51,57 48,73 45,70 48,84 56.023,72.191 52,74 "/>
</svg>
