<?xml version="1.0" encoding="utf-8"?>
<!-- Generator: Adobe Illustrator 16.0.4, SVG Export Plug-In . SVG Version: 6.00 Build 0)  -->
<!DOCTYPE svg PUBLIC "-//W3C//DTD SVG 1.1 Tiny//EN" "http://www.w3.org/Graphics/SVG/1.1/DTD/svg11-tiny.dtd">
<svg version="1.1" baseProfile="tiny" id="Layer_1" xmlns="http://www.w3.org/2000/svg" xmlns:xlink="http://www.w3.org/1999/xlink"
	 x="0px" y="0px" width="100px" height="96.25px" viewBox="0 0 100 96.25" xml:space="preserve">
<path d="M87.78,5.87H12.22c-3.37,0-6.12,2.75-6.12,6.12v55.74c0,3.36,2.75,6.12,6.12,6.12h45.46v-9.19H14.35V15.05h71.31v18.85
	c3.49,0.53,6.19,3.52,6.19,7.16v31.19c1.25-1.12,2.05-2.73,2.05-4.53V11.99C93.9,8.62,91.15,5.87,87.78,5.87z M31.63,67.29
	c0.97,0,1.76,0.79,1.76,1.76c0,0.97-0.79,1.76-1.76,1.76c-0.97,0-1.76-0.79-1.76-1.76C29.87,68.08,30.65,67.29,31.63,67.29z
	 M26.45,67.29c0.97,0,1.76,0.79,1.76,1.76c0,0.97-0.79,1.76-1.76,1.76c-0.97,0-1.76-0.79-1.76-1.76
	C24.69,68.08,25.48,67.29,26.45,67.29z M21.28,67.29c0.97,0,1.76,0.79,1.76,1.76c0,0.97-0.79,1.76-1.76,1.76
	c-0.97,0-1.76-0.79-1.76-1.76C19.52,68.08,20.31,67.29,21.28,67.29z M16.11,67.29c0.97,0,1.76,0.79,1.76,1.76
	c0,0.97-0.79,1.76-1.76,1.76c-0.97,0-1.76-0.79-1.76-1.76C14.35,68.08,15.14,67.29,16.11,67.29z"/>
<path d="M84.57,37.1H64.95c-2.18,0-3.97,1.79-3.97,3.97v45.34c0,2.18,1.78,3.97,3.97,3.97h19.62c2.18,0,3.97-1.79,3.97-3.97V41.07
	C88.54,38.89,86.75,37.1,84.57,37.1z M75.04,45.9c1.23,0,2.23,1,2.23,2.23c0,1.23-1,2.23-2.23,2.23c-1.23,0-2.23-1-2.23-2.23
	C72.81,46.9,73.8,45.9,75.04,45.9z M75.04,52.78c1.23,0,2.23,1,2.23,2.23c0,1.23-1,2.23-2.23,2.23c-1.23,0-2.23-1-2.23-2.23
	C72.81,53.78,73.8,52.78,75.04,52.78z M75.04,59.67c1.23,0,2.23,1,2.23,2.23c0,1.23-1,2.23-2.23,2.23c-1.23,0-2.23-1-2.23-2.23
	C72.81,60.67,73.8,59.67,75.04,59.67z M75.04,67.72c1.73,0,3.3,0.61,4.57,1.6l-4.57,4.57l-4.57-4.57
	C71.73,68.34,73.31,67.72,75.04,67.72z M67.57,45.9c1.23,0,2.23,1,2.23,2.23c0,1.23-1,2.23-2.23,2.23c-1.23,0-2.23-1-2.23-2.23
	C65.34,46.9,66.33,45.9,67.57,45.9z M67.57,52.78c1.23,0,2.23,1,2.23,2.23c0,1.23-1,2.23-2.23,2.23c-1.23,0-2.23-1-2.23-2.23
	C65.34,53.78,66.33,52.78,67.57,52.78z M65.34,61.9c0-1.23,1-2.23,2.23-2.23c1.23,0,2.23,1,2.23,2.23c0,1.23-1,2.23-2.23,2.23
	C66.33,64.13,65.34,63.13,65.34,61.9z M67.57,75.19c0-1.73,0.61-3.3,1.6-4.57l4.57,4.57l-4.57,4.57
	C68.18,78.49,67.57,76.92,67.57,75.19z M75.04,82.66c-1.73,0-3.3-0.61-4.57-1.6l4.57-4.57l4.57,4.57
	C78.34,82.05,76.76,82.66,75.04,82.66z M80.9,79.76l-4.57-4.57l4.57-4.57c0.99,1.26,1.6,2.84,1.6,4.57
	C82.5,76.92,81.89,78.49,80.9,79.76z M82.51,64.13c-1.23,0-2.23-1-2.23-2.23c0-1.23,1-2.23,2.23-2.23c1.23,0,2.23,1,2.23,2.23
	C84.73,63.13,83.74,64.13,82.51,64.13z M82.51,57.24c-1.23,0-2.23-1-2.23-2.23c0-1.23,1-2.23,2.23-2.23c1.23,0,2.23,1,2.23,2.23
	C84.73,56.25,83.74,57.24,82.51,57.24z M82.51,50.36c-1.23,0-2.23-1-2.23-2.23c0-1.23,1-2.23,2.23-2.23c1.23,0,2.23,1,2.23,2.23
	C84.73,49.36,83.74,50.36,82.51,50.36z"/>
</svg>
