<?xml version="1.0" encoding="utf-8"?>
<!-- Generator: Adobe Illustrator 16.0.4, SVG Export Plug-In . SVG Version: 6.00 Build 0)  -->
<!DOCTYPE svg PUBLIC "-//W3C//DTD SVG 1.1//EN" "http://www.w3.org/Graphics/SVG/1.1/DTD/svg11.dtd">
<svg version="1.1" id="Layer_1" xmlns="http://www.w3.org/2000/svg" xmlns:xlink="http://www.w3.org/1999/xlink" x="0px" y="0px"
	 width="100px" height="100px" viewBox="0 0 100 100" enable-background="new 0 0 100 100" xml:space="preserve">
<g id="Your_Icon">
	<g id="Ellipse_2_copy_3">
		<g>
			<ellipse cx="52.6" cy="23.23" rx="6.267" ry="6.277"/>
		</g>
	</g>
	<g id="Rounded_Rectangle_17_copy_2">
		<g>
			<path d="M54.481,46.041l-4.112-9.915c-0.55-1.328-2.073-1.959-3.402-1.411c-1.328,0.548-1.958,2.069-1.409,3.396l4.111,9.914
				c0.551,1.327,2.074,1.958,3.402,1.411C54.401,48.888,55.031,47.367,54.481,46.041z"/>
		</g>
	</g>
	<g id="Rounded_Rectangle_17_copy_3">
		<g>
			<path d="M64.815,50.933c0.401-1.371-0.385-2.81-1.757-3.211L52.81,44.726c-1.373-0.402-2.81,0.384-3.212,1.756
				c-0.401,1.373,0.387,2.81,1.758,3.213l10.249,2.997C62.976,53.093,64.414,52.307,64.815,50.933z"/>
		</g>
	</g>
	<g id="Rounded_Rectangle_14_copy">
		<g>
			<path d="M48.588,29.409l-1.075-0.647c-2.225-1.34-5.112-0.618-6.449,1.61L29.929,48.936c-1.337,2.229-0.617,5.123,1.608,6.46
				l1.073,0.646c2.225,1.34,5.113,0.618,6.45-1.609L50.196,35.87C51.531,33.641,50.812,30.748,48.588,29.409z"/>
		</g>
	</g>
	<g id="Rounded_Rectangle_15">
		<g>
			<path d="M47.86,59.447l-9.56-9.732c-1.577-1.607-4.156-1.628-5.76-0.048c-1.604,1.58-1.625,4.165-0.047,5.771l9.559,9.734
				c1.576,1.607,4.155,1.627,5.759,0.047S49.438,61.053,47.86,59.447z"/>
		</g>
	</g>
	<g id="Rounded_Rectangle_15_copy">
		<g>
			<path d="M36.662,45.973c-1.881-1.235-4.394-0.702-5.611,1.191l-7.376,11.472c-1.217,1.894-0.68,4.431,1.202,5.667
				c1.881,1.234,4.393,0.701,5.61-1.193l7.377-11.471C39.081,49.745,38.543,47.208,36.662,45.973z"/>
		</g>
	</g>
	<g id="Rounded_Rectangle_16">
		<g>
			<path d="M45.705,59.382c-1.949-0.372-3.797,1.099-4.128,3.282l-2.713,17.879c-0.333,2.184,0.978,4.256,2.927,4.627
				c1.949,0.369,3.797-1.1,4.128-3.281l2.714-17.881C48.964,61.824,47.652,59.754,45.705,59.382z"/>
		</g>
	</g>
	<g id="Rounded_Rectangle_16_copy">
		<g>
			<path d="M26.731,59.447L9.02,56.188c-2.163-0.398-4.29,0.723-4.75,2.502c-0.46,1.781,0.92,3.547,3.083,3.947l17.711,3.26
				c2.163,0.398,4.291-0.723,4.75-2.504C30.274,61.611,28.894,59.847,26.731,59.447z"/>
		</g>
	</g>
</g>
<path d="M93.167,89.697c0,2.469-2.001,4.47-4.47,4.47H8.652c-2.469,0-4.47-2.001-4.47-4.47l0,0c0-2.47,2.001-4.471,4.47-4.471
	h80.045C91.166,85.227,93.167,87.228,93.167,89.697L93.167,89.697z"/>
<path d="M88.445,86.641c0.356,1.726-1.109,3.487-3.272,3.934l0,0c-2.163,0.446-4.206-0.592-4.562-2.317L72.849,50.64
	c-0.356-1.727,1.109-3.488,3.272-3.934l0,0c2.163-0.446,4.206,0.591,4.562,2.317L88.445,86.641z"/>
<path d="M88.567,53.871c1.038,0.29,1.641,1.389,1.343,2.452l0,0c-0.297,1.063-1.381,1.69-2.418,1.401l-22.639-6.322
	c-1.039-0.289-1.64-1.387-1.343-2.452l0,0c0.297-1.063,1.379-1.69,2.419-1.4L88.567,53.871z"/>
<path d="M80.283,53.15c-0.854,1.908-3.151,2.738-5.131,1.852l0,0c-1.979-0.885-2.891-3.148-2.037-5.058l4.425-9.89
	c0.854-1.909,3.151-2.739,5.13-1.853l0,0c1.98,0.886,2.891,3.151,2.037,5.06L80.283,53.15z"/>
</svg>
