<svg xmlns="http://www.w3.org/2000/svg" xmlns:xlink="http://www.w3.org/1999/xlink" version="1.1" id="Layer_1" x="0px" y="0px" width="100px" height="100px" viewBox="0 0 100 100" enable-background="new 0 0 100 100" xml:space="preserve">
<g>
	<g>
		<path fill="#000000" d="M32.89,58.066c-11.73-14.663-13.008-26.65-12.857-32.014c11.215-2.646,24.773,8.613,30.907,26.086    c5.374,15.305,3.334,30.474-4.247,37.326C46.155,82.427,43.362,71.154,32.89,58.066z"/>
		<path fill="#000000" d="M9.417,66.719c-5.746-16.365-3.015-32.572,5.904-38.625c0.244,6.865,2.627,18.844,13.887,32.918    c11.234,14.041,12.881,25.619,12.868,31.289c-0.104,0.039-0.206,0.086-0.312,0.124C30.298,96.451,15.815,84.941,9.417,66.719z"/>
	</g>
	<g>
		<path fill="#000000" d="M77.083,34.822c0.766-15.396,6.6-23.51,9.555-26.666c8.068,4.729,10.129,18.909,4.449,32.859    c-4.947,12.152-14.22,20.318-22.529,20.738C72.085,56.988,76.408,48.467,77.083,34.822z"/>
		<path fill="#000000" d="M81.727,6.596c-3.642,4.507-8.621,13.264-9.353,27.994c-0.737,14.878-6.104,22.877-9.149,26.261    c-9.187-3.877-11.798-18.84-5.81-33.544C62.72,14.277,72.995,5.822,81.727,6.596z"/>
	</g>
</g>
</svg>