<?xml version="1.0" encoding="utf-8"?>
<!-- Generator: Adobe Illustrator 16.0.4, SVG Export Plug-In . SVG Version: 6.00 Build 0)  -->
<!DOCTYPE svg PUBLIC "-//W3C//DTD SVG 1.1 Tiny//EN" "http://www.w3.org/Graphics/SVG/1.1/DTD/svg11-tiny.dtd">
<svg version="1.1" baseProfile="tiny" id="Layer_1" xmlns="http://www.w3.org/2000/svg" xmlns:xlink="http://www.w3.org/1999/xlink"
	 x="0px" y="0px" width="100px" height="100px" viewBox="0 0 100 100" xml:space="preserve">
<g>
	<path fill="#FFFFFF" stroke="#000000" stroke-width="0.25" stroke-miterlimit="10" d="M45.69,4.17h3.49V0.83h1.5v3.35h3.52v1.57
		h-3.52v3.35h-1.5V5.74h-3.49V4.17z"/>
</g>
<g>
	<path fill="#FFFFFF" stroke="#000000" stroke-width="0.5" stroke-miterlimit="10" d="M49.2,91.59h1.62v7.58H49.2V91.59z"/>
</g>
<path fill="#FFFFFF" stroke="#000000" stroke-width="0.5" stroke-miterlimit="10" d="M63.44,17.94c-2.28-4.23-4.2-8.88-4.14-13.73
	c-3.47,3.44-8,5.59-12.65,6.76c2.31,0.88,5.75,1.49,8.4,0.92c-2,5.55-4.65,14.32-6.02,24.71c-6.97,0.52-12.49,6.35-12.49,13.45
	s5.52,12.93,12.49,13.45c1.37,10.39,4.02,19.16,6.02,24.71c-2.66-0.57-6.09,0.04-8.4,0.92c4.65,1.17,9.18,3.32,12.65,6.76
	c-0.06-4.85,1.86-9.5,4.14-13.73c-2.36,1.21-5.03,2.96-6.54,5.27c-1.94-5.41-4.5-13.89-5.85-23.92c6.97-0.52,12.49-6.34,12.49-13.45
	s-5.52-12.93-12.49-13.45c1.35-10.03,3.9-18.51,5.85-23.92C58.41,14.98,61.08,16.73,63.44,17.94z M61.54,50.04
	c0,6.09-4.75,11.07-10.74,11.46c-0.25,0.02-0.5,0.04-0.76,0.04c-0.43,0-0.84-0.03-1.26-0.07c-5.75-0.63-10.24-5.51-10.24-11.43
	s4.49-10.8,10.24-11.43c0.41-0.04,0.83-0.07,1.26-0.07c0.26,0,0.51,0.02,0.76,0.04C56.79,38.97,61.54,43.96,61.54,50.04z"/>
</svg>
